<svg xmlns="http://www.w3.org/2000/svg" width="32" height="32" viewBox="0 0 24 24">
  <!-- QR glyph (same shape as the profile page's QR button icon), blue, behind -->
  <g fill="none" stroke="#2563eb" stroke-width="2">
    <rect x="3" y="3" width="7" height="7" rx="1" />
    <rect x="14" y="3" width="7" height="7" rx="1" />
    <rect x="3" y="14" width="7" height="7" rx="1" />
    <path d="M14 14h3v3M14 20h3M20 14v3M20 20v.01" />
  </g>
  <!-- Person icon, light grey, in front -->
  <path fill="#d1d5db" d="M12 12c2.21 0 4-1.79 4-4s-1.79-4-4-4-4 1.79-4 4 1.79 4 4 4zm0 2c-2.67 0-8 1.34-8 4v2h16v-2c0-2.66-5.33-4-8-4z"/>
</svg>
